<svg version="1.1" viewBox="0.0 0.0 383.5748031496063 345.0787401574803" fill="none" stroke="none" stroke-linecap="square" stroke-miterlimit="10" xmlns:xlink="http://www.w3.org/1999/xlink" xmlns="http://www.w3.org/2000/svg"><clipPath id="p.0"><path d="m0 0l383.5748 0l0 345.07874l-383.5748 0l0 -345.07874z" clip-rule="nonzero"/></clipPath><g clip-path="url(#p.0)"><path fill="#000000" fill-opacity="0.0" d="m0 0l383.5748 0l0 345.07874l-383.5748 0z" fill-rule="evenodd"/><path fill="#000000" d="m0 -1.656168l383.55905 0l0 346.74014l-383.55905 0z" fill-rule="evenodd"/><path fill="#000000" fill-opacity="0.0" d="m2.3307087 147.05774l164.0945 0l0 213.25986l-164.0945 0z" fill-rule="evenodd"/><path fill="#ffffff" d="m17.283834 338.91837q-2.156251 0 -4.718751 -0.25q-2.5625 -0.25 -4.375 -0.90625l0 -12.734375q0.828125 0.171875 2.3125 0.328125q1.484375 0.171875 2.3125 0.171875q3.812501 0 5.953126 -1.5q2.15625 -1.484375 3.0625 -4.125q0.90625 -2.640625 0.90625 -5.953125l0 -94.73439l17.687498 0l0 96.54689q0 11.25 -6.203125 17.203125q-6.187498 5.953125 -16.937498 5.953125zm5.453125 -133.92189l0 -18.515625l17.859373 0l0 18.515625l-17.859373 0zm69.77545 111.10939q-5.125 0 -9.1875 -2.5625q-4.046875 -2.5625 -7.015625 -5.703125l0 6.9375l-17.687504 0l0 -133.92189l17.687504 0l0 45.96875q3.140625 -3.640625 7.515625 -6.28125q4.390625 -2.640625 10.5 -2.640625q7.4375 0 11.8125 3.890625q4.390625 3.875 6.53125 9.75q2.15625 5.859375 2.8125 11.90625q0.671875 6.03125 0.671875 10.328125l0 23.14064q0 10.078125 -1.984375 19.09375q-1.984375 9.015625 -7.109375 14.5625q-5.125 5.53125 -14.546875 5.53125zm-3.640625 -13.890625q4.625 0 6.609375 -3.390625q1.984375 -3.390625 2.484375 -9.171875q0.5 -5.796875 0.5 -12.734375l0 -23.14064q0 -5.953125 -0.671875 -11.0q-0.65625 -5.046875 -2.8125 -8.015625q-2.140625 -2.984375 -6.765625 -2.984375q-3.484375 0 -6.546875 1.5q-3.046875 1.484375 -5.359375 3.296875l0 61.343765q2.3125 1.8125 5.53125 3.0625q3.21875 1.234375 7.03125 1.234375z" fill-rule="nonzero"/><path fill="#ffffff" d="m92.220474 147.68767l0 0c0 -75.80652 61.453323 -137.25984 137.25984 -137.25984l0 0c36.403564 0 71.31616 14.461265 97.05737 40.202477c25.74121 25.741215 40.202454 60.65379 40.202454 97.05737l0 0c0 75.80652 -61.45331 137.25984 -137.25983 137.25984l0 0c-75.80652 0 -137.25984 -61.453323 -137.25984 -137.25984z" fill-rule="evenodd"/><path fill="#000000" d="m101.71654 147.68767l0 0c0 -70.56199 57.201797 -127.76378 127.76378 -127.76378l0 0c33.88507 0 66.38226 13.460789 90.34262 37.421143c23.960358 23.960361 37.421143 56.457577 37.421143 90.342636l0 0c0 70.56198 -57.201782 127.76378 -127.76376 127.76378l0 0c-70.56198 0 -127.76378 -57.201797 -127.76378 -127.76378z" fill-rule="evenodd"/><path fill="#ffffff" d="m182.4252 147.68767l0 0c0 -25.987831 21.067291 -47.055122 47.055115 -47.055122l0 0c12.479797 0 24.44844 4.9575806 33.27298 13.782127c8.824554 8.824547 13.782135 20.793198 13.782135 33.272995l0 0c0 25.987823 -21.067291 47.055115 -47.055115 47.055115l0 0c-25.987823 0 -47.055115 -21.067291 -47.055115 -47.055115z" fill-rule="evenodd"/><path fill="#000000" d="m220.85039 147.68767l0 0c0 -4.7661743 3.8637543 -8.629929 8.629929 -8.629929l0 0c2.288803 0 4.483856 0.90922546 6.1022797 2.527649c1.6184235 1.6184235 2.5276337 3.8134766 2.5276337 6.1022797l0 0c0 4.7661743 -3.863739 8.629913 -8.629913 8.629913l0 0c-4.7661743 0 -8.629929 -3.863739 -8.629929 -8.629913z" fill-rule="evenodd"/><path fill="#000000" fill-opacity="0.0" d="m111.291336 147.68767l0 0c0 -65.27397 52.91501 -118.18898 118.18898 -118.18898l0 0c31.345673 0 61.4075 12.452019 83.572235 34.616753c22.164734 22.164726 34.61673 52.226555 34.61673 83.57223l0 0c0 65.27397 -52.91501 118.18898 -118.188965 118.18898l0 0c-65.27397 0 -118.18898 -52.91501 -118.18898 -118.18898z" fill-rule="evenodd"/><path stroke="#ffffff" stroke-width="1.0" stroke-linejoin="round" stroke-linecap="butt" d="m111.291336 147.68767l0 0c0 -65.27397 52.91501 -118.18898 118.18898 -118.18898l0 0c31.345673 0 61.4075 12.452019 83.572235 34.616753c22.164734 22.164726 34.61673 52.226555 34.61673 83.57223l0 0c0 65.27397 -52.91501 118.18898 -118.188965 118.18898l0 0c-65.27397 0 -118.18898 -52.91501 -118.18898 -118.18898z" fill-rule="evenodd"/><path fill="#000000" fill-opacity="0.0" d="m127.637794 147.68767l0 0c0 -56.24607 45.596443 -101.84252 101.84252 -101.84252l0 0c27.010315 0 52.914368 10.729805 72.01355 29.82898c19.099152 19.099182 29.82898 45.00322 29.82898 72.01354l0 0c0 56.246063 -45.596466 101.842514 -101.84253 101.842514l0 0c-56.24608 0 -101.84252 -45.59645 -101.84252 -101.842514z" fill-rule="evenodd"/><path stroke="#ffffff" stroke-width="1.0" stroke-linejoin="round" stroke-linecap="butt" d="m127.637794 147.68767l0 0c0 -56.24607 45.596443 -101.84252 101.84252 -101.84252l0 0c27.010315 0 52.914368 10.729805 72.01355 29.82898c19.099152 19.099182 29.82898 45.00322 29.82898 72.01354l0 0c0 56.246063 -45.596466 101.842514 -101.84253 101.842514l0 0c-56.24608 0 -101.84252 -45.59645 -101.84252 -101.842514z" fill-rule="evenodd"/><path fill="#000000" fill-opacity="0.0" d="m144.91339 147.68767l0 0c0 -46.705032 37.861893 -84.56693 84.566925 -84.56693l0 0c22.428543 0 43.938477 8.909706 59.79785 24.769081c15.859375 15.859375 24.769073 37.3693 24.769073 59.79785l0 0c0 46.705017 -37.861908 84.566925 -84.566925 84.566925l0 0c-46.705032 0 -84.566925 -37.861908 -84.566925 -84.566925z" fill-rule="evenodd"/><path stroke="#ffffff" stroke-width="1.0" stroke-linejoin="round" stroke-linecap="butt" d="m144.91339 147.68767l0 0c0 -46.705032 37.861893 -84.56693 84.566925 -84.56693l0 0c22.428543 0 43.938477 8.909706 59.79785 24.769081c15.859375 15.859375 24.769073 37.3693 24.769073 59.79785l0 0c0 46.705017 -37.861908 84.566925 -84.566925 84.566925l0 0c-46.705032 0 -84.566925 -37.861908 -84.566925 -84.566925z" fill-rule="evenodd"/><path fill="#000000" fill-opacity="0.0" d="m164.51968 147.68767l0 0c0 -35.87677 29.083862 -64.96063 64.96063 -64.96063l0 0c17.228622 0 33.751617 6.8440475 45.934113 19.026527c12.182465 12.18248 19.02652 28.705467 19.02652 45.934105l0 0c0 35.876755 -29.083862 64.96063 -64.96063 64.96063l0 0c-35.87677 0 -64.96063 -29.083878 -64.96063 -64.96063z" fill-rule="evenodd"/><path stroke="#ffffff" stroke-width="1.0" stroke-linejoin="round" stroke-linecap="butt" d="m164.51968 147.68767l0 0c0 -35.87677 29.083862 -64.96063 64.96063 -64.96063l0 0c17.228622 0 33.751617 6.8440475 45.934113 19.026527c12.182465 12.18248 19.02652 28.705467 19.02652 45.934105l0 0c0 35.876755 -29.083862 64.96063 -64.96063 64.96063l0 0c-35.87677 0 -64.96063 -29.083878 -64.96063 -64.96063z" fill-rule="evenodd"/><path fill="#ffffff" d="m50.548557 202.94751l131.2126 0l0 8.629913l-131.2126 0z" fill-rule="evenodd"/></g></svg>