<svg version="1.1" viewBox="0.0 0.0 383.5748031496063 345.0787401574803" fill="none" stroke="none" stroke-linecap="square" stroke-miterlimit="10" xmlns:xlink="http://www.w3.org/1999/xlink" xmlns="http://www.w3.org/2000/svg"><clipPath id="p.0"><path d="m0 0l383.5748 0l0 345.07874l-383.5748 0l0 -345.07874z" clip-rule="nonzero"/></clipPath><g clip-path="url(#p.0)"><path fill="#000000" fill-opacity="0.0" d="m0 0l383.5748 0l0 345.07874l-383.5748 0z" fill-rule="evenodd"/><path fill="#000000" fill-opacity="0.0" d="m80.96063 171.68636l0 0c0 -73.18861 59.331085 -132.51968 132.51968 -132.51968l0 0c35.146408 0 68.8533 13.961853 93.70557 38.814114c24.852264 24.852264 38.814117 58.559166 38.814117 93.705574l0 0c0 73.1886 -59.331085 132.51967 -132.51968 132.51967l0 0c-73.1886 0 -132.51968 -59.33107 -132.51968 -132.51967z" fill-rule="evenodd"/><path stroke="#ffffff" stroke-width="12.0" stroke-linejoin="round" stroke-linecap="butt" d="m80.96063 171.68636l0 0c0 -73.18861 59.331085 -132.51968 132.51968 -132.51968l0 0c35.146408 0 68.8533 13.961853 93.70557 38.814114c24.852264 24.852264 38.814117 58.559166 38.814117 93.705574l0 0c0 73.1886 -59.331085 132.51967 -132.51968 132.51967l0 0c-73.1886 0 -132.51968 -59.33107 -132.51968 -132.51967z" fill-rule="evenodd"/><path fill="#000000" fill-opacity="0.0" d="m95.291336 171.68767l0 0c0 -65.27397 52.91501 -118.18898 118.18898 -118.18898l0 0c31.345657 0 61.4075 12.452019 83.572235 34.616753c22.164734 22.164726 34.61673 52.226555 34.61673 83.57223l0 0c0 65.27397 -52.91501 118.18898 -118.188965 118.18898l0 0c-65.27397 0 -118.18898 -52.91501 -118.18898 -118.18898z" fill-rule="evenodd"/><path stroke="#ffffff" stroke-width="1.0" stroke-linejoin="round" stroke-linecap="butt" d="m95.291336 171.68767l0 0c0 -65.27397 52.91501 -118.18898 118.18898 -118.18898l0 0c31.345657 0 61.4075 12.452019 83.572235 34.616753c22.164734 22.164726 34.61673 52.226555 34.61673 83.57223l0 0c0 65.27397 -52.91501 118.18898 -118.188965 118.18898l0 0c-65.27397 0 -118.18898 -52.91501 -118.18898 -118.18898z" fill-rule="evenodd"/><path fill="#000000" fill-opacity="0.0" d="m111.637794 171.68767l0 0c0 -56.24607 45.596443 -101.84252 101.84252 -101.84252l0 0c27.010315 0 52.914368 10.729805 72.01355 29.82898c19.099152 19.099182 29.82898 45.003227 29.82898 72.01354l0 0c0 56.246063 -45.596466 101.842514 -101.84253 101.842514l0 0c-56.24608 0 -101.84252 -45.59645 -101.84252 -101.842514z" fill-rule="evenodd"/><path stroke="#ffffff" stroke-width="1.0" stroke-linejoin="round" stroke-linecap="butt" d="m111.637794 171.68767l0 0c0 -56.24607 45.596443 -101.84252 101.84252 -101.84252l0 0c27.010315 0 52.914368 10.729805 72.01355 29.82898c19.099152 19.099182 29.82898 45.003227 29.82898 72.01354l0 0c0 56.246063 -45.596466 101.842514 -101.84253 101.842514l0 0c-56.24608 0 -101.84252 -45.59645 -101.84252 -101.842514z" fill-rule="evenodd"/><path fill="#000000" fill-opacity="0.0" d="m128.91339 171.68767l0 0c0 -46.705032 37.861893 -84.56693 84.566925 -84.56693l0 0c22.428543 0 43.938477 8.909706 59.79785 24.769081c15.859375 15.859375 24.769073 37.36931 24.769073 59.79785l0 0c0 46.705017 -37.861908 84.56694 -84.566925 84.56694l0 0c-46.705032 0 -84.566925 -37.861923 -84.566925 -84.56694z" fill-rule="evenodd"/><path stroke="#ffffff" stroke-width="1.0" stroke-linejoin="round" stroke-linecap="butt" d="m128.91339 171.68767l0 0c0 -46.705032 37.861893 -84.56693 84.566925 -84.56693l0 0c22.428543 0 43.938477 8.909706 59.79785 24.769081c15.859375 15.859375 24.769073 37.36931 24.769073 59.79785l0 0c0 46.705017 -37.861908 84.56694 -84.566925 84.56694l0 0c-46.705032 0 -84.566925 -37.861923 -84.566925 -84.56694z" fill-rule="evenodd"/><path fill="#000000" fill-opacity="0.0" d="m148.51968 171.68767l0 0c0 -35.87677 29.083862 -64.96063 64.96063 -64.96063l0 0c17.228622 0 33.751617 6.8440475 45.934113 19.026527c12.182465 12.1824875 19.02652 28.705467 19.02652 45.934105l0 0c0 35.876755 -29.083862 64.96063 -64.96063 64.96063l0 0c-35.87677 0 -64.96063 -29.083878 -64.96063 -64.96063z" fill-rule="evenodd"/><path stroke="#ffffff" stroke-width="1.0" stroke-linejoin="round" stroke-linecap="butt" d="m148.51968 171.68767l0 0c0 -35.87677 29.083862 -64.96063 64.96063 -64.96063l0 0c17.228622 0 33.751617 6.8440475 45.934113 19.026527c12.182465 12.1824875 19.02652 28.705467 19.02652 45.934105l0 0c0 35.876755 -29.083862 64.96063 -64.96063 64.96063l0 0c-35.87677 0 -64.96063 -29.083878 -64.96063 -64.96063z" fill-rule="evenodd"/><path fill="#000000" fill-opacity="0.0" d="m179.48032 171.68767l0 0c0 -18.77768 15.222321 -34.0 34.0 -34.0l0 0c9.0173645 0 17.66539 3.5821228 24.041626 9.958359c6.376236 6.376251 9.958374 15.024277 9.958374 24.041641l0 0c0 18.77768 -15.222321 34.0 -34.0 34.0l0 0c-18.77768 0 -34.0 -15.222321 -34.0 -34.0z" fill-rule="evenodd"/><path stroke="#ffffff" stroke-width="24.0" stroke-linejoin="round" stroke-linecap="butt" d="m179.48032 171.68767l0 0c0 -18.77768 15.222321 -34.0 34.0 -34.0l0 0c9.0173645 0 17.66539 3.5821228 24.041626 9.958359c6.376236 6.376251 9.958374 15.024277 9.958374 24.041641l0 0c0 18.77768 -15.222321 34.0 -34.0 34.0l0 0c-18.77768 0 -34.0 -15.222321 -34.0 -34.0z" fill-rule="evenodd"/><path fill="#000000" fill-opacity="0.0" d="m14.110236 -0.001312336l120.314964 0l0 213.25984l-120.314964 0z" fill-rule="evenodd"/><path fill="#ffffff" d="m33.532112 167.71867l0 -133.92188l26.9375 0q13.390625 0 22.15625 3.5625q8.765625 3.546875 12.984375 11.40625q4.21875 7.859375 4.21875 20.578125q0 7.78125 -1.65625 14.140625q-1.65625 6.359375 -5.296875 10.75q-3.640625 4.375 -9.59375 6.359375l19.015625 67.125l-18.015625 0l-17.53125 -62.828125l-14.546875 0l0 62.828125l-18.671875 0zm18.671875 -76.21875l7.109375 0q7.9375 0 12.890625 -1.984375q4.96875 -1.984375 7.28125 -6.765625q2.3125 -4.796875 2.3125 -13.40625q0 -11.734375 -4.296875 -16.9375q-4.296875 -5.21875 -17.03125 -5.21875l-8.265625 0l0 44.3125z" fill-rule="nonzero"/><path fill="#000000" fill-opacity="0.0" d="m15.764614 137.42047l117.00787 0.0315094l0 213.25984l-117.00787 -0.03149414z" fill-rule="evenodd"/><path fill="#ffffff" d="m66.76461 306.63858q-11.578121 -0.003112793 -19.265621 -4.958313q-7.6875 -4.970825 -11.65625 -13.721893q-3.96875 -8.766693 -4.625 -20.345001l16.53125 -4.4642944q0.5 7.109497 2.234375 13.734985q1.734375 6.609833 5.703125 10.829651q3.96875 4.219818 11.078121 4.2217407q7.265625 0.001953125 10.984375 -4.043915q3.71875 -4.0615234 3.71875 -11.670898q0 -9.09375 -4.140625 -14.626099q-4.125 -5.548004 -10.40625 -11.159058l-22.484371 -19.849808q-6.609375 -5.78302 -9.75 -12.6432495q-3.140625 -6.875839 -3.140625 -16.953964q0 -14.71875 8.421875 -22.810242q8.4375 -8.107101 22.984375 -8.10318q7.937496 0.0021362305 13.968746 2.0818787q6.046875 2.0641327 10.09375 6.362091q4.046875 4.2979736 6.4375 10.8298645q2.40625 6.531891 3.234375 15.297745l-15.875 4.2926025q-0.5 -6.6095123 -1.984375 -12.141159q-1.484375 -5.5472717 -5.203125 -8.938904q-3.71875 -3.3916168 -10.671871 -3.3934937q-6.9375 -0.0018615723 -10.828125 3.7158356q-3.875 3.7177124 -3.875 10.998962q0 6.109375 2.0625 10.078674q2.0625 3.9692993 6.6875 8.095551l22.656246 19.849854q7.609375 6.6114197 13.390625 15.800476q5.78125 9.173416 5.78125 21.735916q0 9.9219055 -4.140625 17.123901q-4.125 7.1864014 -11.3125 10.981323q-7.1875 3.7949524 -16.609375 3.7924194z" fill-rule="nonzero"/><path fill="#ffffff" d="m34.548557 226.94751l131.2126 0l0 8.629913l-131.2126 0z" fill-rule="evenodd"/><path fill="#000000" fill-opacity="0.0" d="m193.62204 171.68767l0 0c0 -10.9674225 8.890854 -19.858276 19.858276 -19.858276l0 0c5.266739 0 10.317764 2.0922089 14.041916 5.8163605c3.7241516 3.7241364 5.816345 8.775177 5.816345 14.041916l0 0c0 10.967407 -8.890839 19.858261 -19.858261 19.858261l0 0c-10.9674225 0 -19.858276 -8.890854 -19.858276 -19.858261z" fill-rule="evenodd"/><path stroke="#ffffff" stroke-width="24.0" stroke-linejoin="round" stroke-linecap="butt" d="m193.62204 171.68767l0 0c0 -10.9674225 8.890854 -19.858276 19.858276 -19.858276l0 0c5.266739 0 10.317764 2.0922089 14.041916 5.8163605c3.7241516 3.7241364 5.816345 8.775177 5.816345 14.041916l0 0c0 10.967407 -8.890839 19.858261 -19.858261 19.858261l0 0c-10.9674225 0 -19.858276 -8.890854 -19.858276 -19.858261z" fill-rule="evenodd"/></g></svg>